<?xml version="1.0" encoding="utf-8"?>
<!-- Generator: Adobe Illustrator 16.0.0, SVG Export Plug-In . SVG Version: 6.00 Build 0)  -->
<!DOCTYPE svg PUBLIC "-//W3C//DTD SVG 1.1//EN" "http://www.w3.org/Graphics/SVG/1.1/DTD/svg11.dtd">
<svg version="1.1" id="Capa_1" xmlns="http://www.w3.org/2000/svg" xmlns:xlink="http://www.w3.org/1999/xlink" x="0px" y="0px"
	 width="200px" height="70.22px" viewBox="0 0 200 70.22" enable-background="new 0 0 200 70.22" xml:space="preserve">
<g>
	<g>
		<path fill="#3C3C3B" d="M71.966,41.583V24.879h7.011c0.753,0,1.447,0.154,2.083,0.471c0.635,0.311,1.178,0.727,1.634,1.238
			c0.457,0.51,0.813,1.084,1.071,1.736c0.257,0.648,0.388,1.314,0.388,1.988c0,0.705-0.123,1.389-0.365,2.039
			c-0.243,0.643-0.583,1.229-1.022,1.738c-0.441,0.506-0.968,0.92-1.589,1.223c-0.62,0.307-1.304,0.459-2.058,0.459H74.6v5.811
			H71.966z M74.6,33.444h4.354c0.376,0,0.718-0.08,1.023-0.24c0.306-0.152,0.568-0.379,0.788-0.658
			c0.22-0.277,0.391-0.609,0.519-0.984c0.123-0.375,0.188-0.791,0.188-1.248c0-0.471-0.069-0.895-0.211-1.271
			c-0.141-0.371-0.34-0.699-0.59-0.973c-0.251-0.275-0.537-0.486-0.86-0.643c-0.319-0.143-0.655-0.215-0.999-0.215H74.6V33.444z"/>
		<path fill="#3C3C3B" d="M96.632,41.819c-0.595,0-1.146-0.1-1.657-0.291c-0.511-0.195-0.95-0.473-1.317-0.816
			c-0.371-0.346-0.658-0.752-0.873-1.223c-0.209-0.473-0.314-0.979-0.314-1.525c0-0.586,0.125-1.109,0.375-1.578
			c0.25-0.467,0.606-0.875,1.07-1.225c0.462-0.344,1.011-0.611,1.646-0.801c0.637-0.189,1.339-0.285,2.105-0.285
			c0.582,0,1.154,0.057,1.72,0.154c0.562,0.109,1.073,0.24,1.53,0.414v-0.428c0-0.906-0.262-1.5-0.778-2.012
			c-0.517-0.51-1.265-0.768-2.234-0.768c-0.658,0-1.306,0.121-1.941,0.367c-0.636,0.242-1.292,0.596-1.966,1.049l-0.799-1.918
			c1.584-1.064,3.234-1.6,4.941-1.6c1.692,0,2.812,0.432,3.753,1.299c0.942,0.863,1.411,2.254,1.411,3.863v4.031
			c0,0.689,0.227,0.834,0.683,0.846v2.209c-0.284,0-0.817,0-1.029,0c-0.179,0-0.808,0.053-1.184-0.332
			c-0.521-0.533-0.506-1.225-0.506-1.225C100.717,40.749,99.647,41.819,96.632,41.819z M97.248,39.594
			c1.654,0,2.85-0.725,3.227-1.158c0.258-0.285,0.432-0.857,0.432-1.088v-0.672c-0.438-0.127-0.901-0.273-1.396-0.342
			c-0.492-0.07-0.977-0.164-1.446-0.164c-0.925,0-1.678,0.148-2.269,0.441c-0.587,0.291-0.942,0.76-0.959,1.244
			c-0.023,0.727,0.228,1.09,0.681,1.391C95.972,39.553,96.541,39.594,97.248,39.594z"/>
		<path fill="#3C3C3B" d="M91.45,40.042c-0.177-0.393-0.291-0.811-0.361-1.24c-0.229,0.082-0.419,0.145-0.491,0.162
			c-0.227,0.063-0.427,0.096-0.603,0.096c-0.42,0-1.216-0.17-1.216-1.154V24.407H86.19v14.566c0,0.896,0.249,1.582,0.744,2.07
			c0.493,0.484,1.186,0.727,2.082,0.727c0.404,0,0.87-0.051,1.388-0.15c0.266-0.055,0.995-0.285,1.695-0.516
			C91.844,40.776,91.624,40.422,91.45,40.042z"/>
		<path fill="#3C3C3B" d="M116.466,41.583h-2.589V34.69c0-1.164-0.185-2.002-0.553-2.529c-0.369-0.521-0.914-0.785-1.635-0.785
			c-0.376,0-0.751,0.064-1.132,0.207c-0.374,0.143-0.729,0.338-1.055,0.602c-0.331,0.262-0.625,0.563-0.886,0.92
			c-0.257,0.348-0.599,1.066-0.599,1.709c0,1.873,0,6.77,0,6.77h-2.588V29.28h2.351v1.691c0.276-0.369,0.793-0.971,1.726-1.365
			c1.134-0.479,2.012-0.537,3.092-0.537c1.982,0,2.85,1.316,3.125,1.777c0.274,0.463,0.466,1,0.576,1.6
			c0.11,0.605,0.166,1.24,0.166,1.92V41.583z"/>
		<path fill="#3C3C3B" d="M125.39,33.114c0-1.021,0.183-2.031,0.552-3.023c0.369-0.994,0.906-1.885,1.614-2.674
			c0.703-0.781,1.565-1.42,2.585-1.902c1.02-0.486,2.182-0.73,3.48-0.73c1.538,0,2.87,0.338,3.992,1.014
			c1.122,0.678,1.957,1.555,2.505,2.631l-2.494,1.721c-0.22-0.473-0.487-0.869-0.801-1.191c-0.313-0.316-0.652-0.572-1.01-0.762
			c-0.365-0.189-0.736-0.324-1.134-0.412c-0.39-0.086-0.773-0.131-1.151-0.131c-0.814,0-1.525,0.168-2.127,0.496
			c-0.606,0.326-1.104,0.756-1.506,1.283c-0.4,0.527-0.701,1.113-0.908,1.787c-0.203,0.668-0.306,1.326-0.306,1.984
			c0,0.74,0.119,1.451,0.353,2.135c0.235,0.684,0.569,1.281,1,1.797c0.433,0.518,0.949,0.934,1.554,1.248
			c0.604,0.316,1.269,0.473,1.988,0.473c0.376,0,0.769-0.051,1.177-0.141c0.406-0.1,0.794-0.242,1.163-0.449
			c0.368-0.203,0.712-0.467,1.025-0.789c0.313-0.32,0.564-0.707,0.752-1.164l2.661,1.529c-0.268,0.631-0.648,1.184-1.145,1.658
			c-0.492,0.479-1.049,0.885-1.67,1.211c-0.618,0.332-1.282,0.584-1.985,0.754c-0.705,0.174-1.399,0.26-2.071,0.26
			c-1.194,0-2.281-0.248-3.271-0.75c-0.987-0.504-1.84-1.162-2.555-1.969c-0.711-0.807-1.27-1.725-1.667-2.752
			C125.59,35.229,125.39,34.18,125.39,33.114z"/>
		<path fill="#3C3C3B" d="M147.951,41.819c-0.983,0-1.882-0.168-2.68-0.506c-0.8-0.336-1.484-0.795-2.047-1.375
			c-0.566-0.576-1.004-1.254-1.31-2.023c-0.304-0.77-0.454-1.576-0.454-2.422c0-0.881,0.148-1.709,0.447-2.484
			c0.296-0.777,0.729-1.459,1.292-2.049c0.564-0.588,1.252-1.053,2.059-1.396c0.81-0.346,1.714-0.521,2.716-0.521
			c1.005,0,1.903,0.176,2.691,0.521c0.796,0.344,1.472,0.803,2.027,1.387c0.556,0.576,0.981,1.254,1.272,2.02
			c0.289,0.773,0.436,1.568,0.436,2.406c0,0.201-0.007,0.396-0.014,0.584c-0.009,0.189-0.027,0.348-0.057,0.475h-9.731
			c0.049,1,0.782,1.826,1.079,2.094c0.297,0.266,0.633,0.473,1.013,0.613c0.377,0.143,0.973,0.215,1.379,0.215
			c0.625,0,1.22-0.156,1.777-0.467c0.556-0.299,0.935-0.543,1.143-1.047l2.706,0.752c-0.456,0.943-1.184,1.717-2.179,2.32
			C150.522,41.522,149.332,41.819,147.951,41.819z M151.32,34.385c-0.082-0.865-0.444-1.561-1.08-2.08
			c-0.632-0.514-1.404-0.779-2.313-0.779c-0.445,0-0.861,0.072-1.249,0.215c-0.387,0.137-0.731,0.332-1.029,0.578
			c-0.298,0.248-0.541,0.551-0.729,0.902c-0.19,0.354-0.301,0.738-0.335,1.164H151.32z"/>
		<path fill="#3C3C3B" d="M156.33,27.54v-3.129h3.151v3.129H156.33z M156.33,41.583v-12.33h3.151v12.33H156.33z"/>
		<g>
			<g>
				<path fill="#3C3C3B" d="M174.944,35.448c0,3.67-2.307,6.293-5.813,6.293c-1.964,0-3.303-0.438-4.343-1.883v1.688h-3.145V24.411
					h3.145v6.512c0.891-1.201,2.379-1.758,4.296-1.758C172.567,29.165,174.944,31.708,174.944,35.448z M172.215,35.36
					c0-2.17-1.344-3.771-3.58-3.771s-3.931,1.58-3.931,3.771c0,2.25,1.694,3.967,3.931,3.967S172.215,37.583,172.215,35.36z"/>
			</g>
		</g>
		<path fill="#3C3C3B" d="M194.765,38.5l-0.186,0.072c-0.199,0.08-0.414,0.148-0.63,0.205c-0.213,0.059-0.398,0.092-0.555,0.092
			c-0.317,0-1.049-0.098-1.049-0.99V24.217h-2.927v14.734c0,0.934,0.266,1.67,0.795,2.191c0.521,0.512,1.26,0.775,2.197,0.775
			c0.416,0,0.894-0.057,1.422-0.158c0.527-0.105,0.99-0.248,1.377-0.426l0.12-0.049L194.765,38.5z"/>
		<path fill="#3C3C3B" d="M188.538,41.407c-0.405-0.559-0.639-1.264-0.694-2.08l-0.013-0.143l-0.14-0.01
			c-0.257-0.025-0.422-0.084-0.422-0.674v-4.004c0-1.656-0.494-2.947-1.467-3.838c-1.01-0.926-2.202-1.336-3.868-1.336
			c-1.735,0-3.429,0.547-5.031,1.627l-0.121,0.078l0.939,2.07l0.165-0.113c0.662-0.439,1.312-0.787,1.934-1.023
			c0.609-0.236,1.245-0.354,1.88-0.354c0.923,0,1.635,0.238,2.119,0.711c0.51,0.506,0.724,1.074,0.724,1.896v0.17
			c-0.402-0.143-0.851-0.254-1.33-0.344c-1.333-0.24-2.766-0.203-3.901,0.133c-0.654,0.195-1.222,0.479-1.698,0.828
			c-0.481,0.357-0.859,0.787-1.12,1.279c-0.261,0.49-0.397,1.053-0.397,1.656c0,0.568,0.115,1.107,0.333,1.6
			c0.224,0.488,0.53,0.92,0.91,1.275c0.38,0.357,0.843,0.643,1.371,0.848c0.528,0.199,1.107,0.301,1.719,0.301
			c2.607,0,3.824-0.795,4.496-1.527c0.05,0.33,0.19,0.777,0.564,1.064c0.322,0.256,0.794,0.389,1.407,0.389
			c0.785,0,1.52-0.211,1.554-0.221l0.229-0.068L188.538,41.407z M181.042,39.338c-0.735,0-1.241-0.049-1.632-0.313
			c-0.393-0.264-0.631-0.568-0.608-1.252c0.017-0.426,0.339-0.83,0.865-1.098c0.561-0.277,1.299-0.422,2.194-0.422
			c0.357,0,0.724,0.055,1.109,0.117l0.313,0.041c0.413,0.059,0.805,0.176,1.187,0.285l0.067,0.023v0.545
			c0,0.186-0.164,0.717-0.393,0.975C183.772,38.667,182.596,39.338,181.042,39.338z"/>
	</g>
	<g>
		<g>
			<path fill="#465F0D" d="M27.244,25.928c5.055-2.924,8.227-8.098,10.771-11.91c5.637,5.267,8.771,12.617,8.655,21.097
				c-0.017,1.207-0.206,2.91-0.271,3.4c-0.011,0.088-0.232-0.152-0.54-0.332c-0.503-0.297-0.972-0.67-1.429-1.059
				c-7.899-6.629-6.958-20.751-13.587-12.85c-5.812,6.926-5.732,16.844-0.292,23.645c-4.449,0.768-8.989,0.223-13.082-1.48
				c1.424-3.477,2.546-7.305,2.546-11.324c0-2.236-0.347-4.418-0.901-6.504C21.867,28.172,24.685,27.403,27.244,25.928z"/>
			<path fill="#709F37" d="M17.469,46.44c-4.603-1.914-8.633-5.303-11.318-9.953c-5.023-8.709,3.593-6.379,12.963-7.875
				c0.554,2.086,0.901,4.268,0.901,6.504C20.015,39.135,18.894,42.963,17.469,46.44z"/>
			<path fill="#709F37" d="M38.016,14.019c3.14-4.684,5.333-7.294,8.916-1.08c4.278,7.406,3.311,18.601-0.533,25.578
				c0.011-0.318,0.229-1.377,0.271-3.4C46.834,27.204,43.786,19.273,38.016,14.019z"/>
			<path fill="#E6263A" d="M44.43,37.125c0.458,0.389,1.478,1.074,1.969,1.391c-1.915,2.756-4.515,4.863-7.789,6.766
				c-2.472,1.438-5.399,2.184-8.059,2.639c-5.441-6.801-5.52-16.719,0.292-23.645C37.471,16.374,36.531,30.497,44.43,37.125z"/>
			<path fill="#465F0D" d="M46.399,38.516c7.925,4.363,18.476,2.338,12.508,9.449c-4.899,5.834-12.07,8.23-18.949,6.244
				C43.677,49.999,45.646,44.379,46.399,38.516z"/>
			<path fill-rule="evenodd" clip-rule="evenodd" fill="#A1C638" d="M19.114,28.612c-3.39-12.818-14.534-22.384-0.82-22.384
				c7.626,0,14.566,2.955,19.721,7.791c-2.545,3.812-5.717,8.986-10.771,11.91C24.685,27.403,21.867,28.172,19.114,28.612z"/>
			<path fill-rule="evenodd" clip-rule="evenodd" fill="#A1C638" d="M30.551,47.92c0.757,0.951,1.626,1.838,2.595,2.65
				c2.062,1.732,4.383,2.939,6.813,3.639c-5.292,6-13.036,9.783-21.664,9.783c-11.931,0-5.053-7.234-0.825-17.553
				C21.563,48.143,26.102,48.688,30.551,47.92z"/>
			<path fill="#FFFFFF" d="M38.61,45.282c-2.538,1.314-5.399,2.184-8.059,2.639c0.757,0.951,1.626,1.838,2.595,2.65
				c0.247,0.213,0.501,0.414,0.757,0.609c0.013,0.006,0.025,0.018,0.039,0.027c1.858,1.391,3.897,2.393,6.017,3.002
				c3.718-4.211,5.688-9.83,6.44-15.693C46.399,38.516,43.292,42.856,38.61,45.282z"/>
		</g>
	</g>
</g>
</svg>
